<svg xmlns="http://www.w3.org/2000/svg" viewBox="0 0 32 32" fill="none">
  <rect width="32" height="32" rx="8" fill="#1A1A1F"/>
  <circle cx="16" cy="16" r="11" stroke="#7C5CFF" stroke-width="2" stroke-opacity="0.4"/>
  <path d="M12 18C12 19.1 11.1 20 10 20C8.9 20 8 19.1 8 18C8 16.9 8.9 16 10 16C10.4 16 10.7 16.1 11 16.3V10L19 8V14.3C18.7 14.1 18.4 14 18 14C16.9 14 16 14.9 16 16C16 17.1 16.9 18 18 18C19.1 18 20 17.1 20 16V10.5" stroke="#7C5CFF" stroke-width="2" stroke-linecap="round" stroke-linejoin="round"/>
  <circle cx="23" cy="21" r="3" fill="#4FD1C5"/>
  <path d="M22 21L23 20L24 21" stroke="#0F0F12" stroke-width="1.2" stroke-linecap="round" stroke-linejoin="round"/>
</svg>